<svg width="177" height="42" viewBox="0 0 177 42" fill="none" xmlns="http://www.w3.org/2000/svg">
<path d="M23.0915 0C23.0915 0 26.802 9.07726 10.8998 15.1744C2.25892 18.4865 -4.37778 26.9758 3.54643 40.0895C4.20269 34.2279 7.01666 21.3037 19.1166 18.3546C19.1166 18.3546 7.85471 22.5657 6.85987 41.6277C12.6467 42.4402 26.2185 42.9861 30.2479 31.2085C35.5688 15.6476 23.0915 0 23.0915 0Z" fill="#8DCE97"/>
<path d="M6.86512 41.5484C19.1501 36.6455 28.0889 25.16 29.3226 11.4489C26.8111 4.67443 23.0915 0 23.0915 0C23.0915 0 26.802 9.07726 10.8998 15.1744C2.25892 18.4865 -4.37778 26.9758 3.54643 40.0895C4.20269 34.2279 7.01666 21.3037 19.1166 18.3546C19.1159 18.3546 7.88753 22.5553 6.86512 41.5484Z" fill="#8DCE97"/>
<path d="M2.32059 15.477C2.95487 15.477 3.46905 14.9628 3.46905 14.3285C3.46905 13.6942 2.95487 13.1801 2.32059 13.1801C1.68631 13.1801 1.17212 13.6942 1.17212 14.3285C1.17212 14.9628 1.68631 15.477 2.32059 15.477Z" fill="#8DCE97"/>
<path d="M5.92979 14.0005C6.38283 14.0005 6.75009 13.6332 6.75009 13.1802C6.75009 12.7271 6.38283 12.3599 5.92979 12.3599C5.47676 12.3599 5.1095 12.7271 5.1095 13.1802C5.1095 13.6332 5.47676 14.0005 5.92979 14.0005Z" fill="#8DCE97"/>
<path d="M5.19161 7.43791C6.32421 7.43791 7.24236 6.51976 7.24236 5.38717C7.24236 4.25458 6.32421 3.33643 5.19161 3.33643C4.05902 3.33643 3.14087 4.25458 3.14087 5.38717C3.14087 6.51976 4.05902 7.43791 5.19161 7.43791Z" fill="#8DCE97"/>
<path d="M11.5079 10.7192C11.8704 10.7192 12.1642 10.4254 12.1642 10.063C12.1642 9.70055 11.8704 9.40674 11.5079 9.40674C11.1455 9.40674 10.8517 9.70055 10.8517 10.063C10.8517 10.4254 11.1455 10.7192 11.5079 10.7192Z" fill="#8DCE97"/>
<path d="M17.0047 8.25833C18.0467 8.25833 18.8914 7.41362 18.8914 6.37163C18.8914 5.32963 18.0467 4.48492 17.0047 4.48492C15.9627 4.48492 15.118 5.32963 15.118 6.37163C15.118 7.41362 15.9627 8.25833 17.0047 8.25833Z" fill="#8DCE97"/>
<g opacity="0.8">
<path d="M50.7156 37.8957C48.8751 37.8957 47.2116 37.4961 45.7251 36.6968C44.2562 35.8976 43.0971 34.7942 42.2476 33.3868C41.4159 31.962 41 30.3722 41 28.6173C41 26.8624 41.4159 25.2812 42.2476 23.8738C43.0971 22.449 44.2651 21.337 45.7516 20.5377C47.2382 19.7385 48.9017 19.3388 50.7422 19.3388C52.1225 19.3388 53.3967 19.5647 54.5647 20.0165C55.7327 20.4682 56.7237 21.1285 57.5378 21.9973L56.2902 23.2222C54.839 21.7801 53.0074 21.059 50.7953 21.059C49.3264 21.059 47.9903 21.3891 46.7869 22.0494C45.5835 22.7096 44.6367 23.6132 43.9465 24.7599C43.2741 25.9067 42.9378 27.1925 42.9378 28.6173C42.9378 30.0421 43.2741 31.3278 43.9465 32.4746C44.6367 33.6214 45.5835 34.5249 46.7869 35.1852C47.9903 35.8454 49.3264 36.1756 50.7953 36.1756C53.0251 36.1756 54.8567 35.4458 56.2902 33.9863L57.5378 35.2112C56.7237 36.08 55.7239 36.749 54.5382 37.2181C53.3702 37.6699 52.096 37.8957 50.7156 37.8957Z" fill="#213E26"/>
<path d="M66.0041 23.9259C67.8269 23.9259 69.225 24.3777 70.1983 25.2812C71.1716 26.1674 71.6583 27.4879 71.6583 29.2428V37.7394H69.8532V35.6022C69.4285 36.3146 68.8002 36.8706 67.9685 37.2702C67.1544 37.6699 66.1811 37.8697 65.0485 37.8697C63.4911 37.8697 62.2524 37.5048 61.3321 36.775C60.4119 36.0453 59.9518 35.0809 59.9518 33.882C59.9518 32.7179 60.3765 31.7796 61.2259 31.0672C62.0931 30.3548 63.4646 29.9986 65.3405 29.9986H69.7736V29.1646C69.7736 27.9831 69.4373 27.0882 68.7648 26.4801C68.0924 25.8546 67.1102 25.5418 65.8183 25.5418C64.9335 25.5418 64.084 25.6895 63.2699 25.9849C62.4559 26.2629 61.7568 26.6539 61.1728 27.1578L60.3234 25.7764C61.0313 25.1856 61.8807 24.7339 62.8718 24.4211C63.8628 24.091 64.9069 23.9259 66.0041 23.9259ZM65.3405 36.4102C66.4023 36.4102 67.3137 36.1756 68.0747 35.7064C68.8356 35.2199 69.4019 34.5249 69.7736 33.6214V31.38H65.3936C63.0045 31.38 61.8099 32.1966 61.8099 33.8299C61.8099 34.6292 62.1196 35.2634 62.739 35.7325C63.3584 36.1843 64.2256 36.4102 65.3405 36.4102Z" fill="#213E26"/>
<path d="M80.5203 37.8697C79.3877 37.8697 78.2993 37.7133 77.2552 37.4005C76.2288 37.0704 75.4236 36.6621 74.8396 36.1756L75.689 34.716C76.273 35.1678 77.0075 35.5414 77.8923 35.8368C78.7772 36.1148 79.6974 36.2538 80.653 36.2538C81.9272 36.2538 82.8651 36.0626 83.4668 35.6804C84.0862 35.2807 84.3959 34.7247 84.3959 34.0123C84.3959 33.5085 84.2278 33.1175 83.8916 32.8395C83.5553 32.5441 83.1306 32.3269 82.6174 32.1879C82.1042 32.0315 81.4228 31.8839 80.5734 31.7449C79.4408 31.5364 78.5294 31.3278 77.8392 31.1193C77.149 30.8935 76.5562 30.5199 76.0607 29.9986C75.5829 29.4774 75.3439 28.7563 75.3439 27.8354C75.3439 26.6886 75.8306 25.7503 76.8039 25.0206C77.7773 24.2908 79.1311 23.9259 80.8654 23.9259C81.7679 23.9259 82.6705 24.0476 83.573 24.2908C84.4756 24.5167 85.2188 24.8208 85.8028 25.203L84.9799 26.6886C83.8296 25.9067 82.4581 25.5158 80.8654 25.5158C79.662 25.5158 78.7506 25.7243 78.1312 26.1413C77.5295 26.5583 77.2287 27.1056 77.2287 27.7833C77.2287 28.3045 77.3968 28.7215 77.733 29.0343C78.087 29.3471 78.5205 29.5816 79.0338 29.738C79.547 29.877 80.2548 30.0247 81.1574 30.1811C82.2723 30.3896 83.166 30.5981 83.8385 30.8066C84.511 31.0151 85.0861 31.3713 85.5639 31.8752C86.0417 32.3791 86.2807 33.0741 86.2807 33.9602C86.2807 35.1591 85.7674 36.1148 84.741 36.8272C83.7323 37.5222 82.3254 37.8697 80.5203 37.8697Z" fill="#213E26"/>
<path d="M94.6493 23.9259C96.4721 23.9259 97.8701 24.3777 98.8435 25.2812C99.8168 26.1674 100.303 27.4879 100.303 29.2428V37.7394H98.4984V35.6022C98.0737 36.3146 97.4454 36.8706 96.6137 37.2702C95.7996 37.6699 94.8263 37.8697 93.6937 37.8697C92.1363 37.8697 90.8976 37.5048 89.9773 36.775C89.0571 36.0453 88.5969 35.0809 88.5969 33.882C88.5969 32.7179 89.0217 31.7796 89.8711 31.0672C90.7383 30.3548 92.1098 29.9986 93.9857 29.9986H98.4187V29.1646C98.4187 27.9831 98.0825 27.0882 97.41 26.4801C96.7375 25.8546 95.7554 25.5418 94.4635 25.5418C93.5786 25.5418 92.7292 25.6895 91.9151 25.9849C91.1011 26.2629 90.402 26.6539 89.818 27.1578L88.9686 25.7764C89.6765 25.1856 90.5259 24.7339 91.5169 24.4211C92.508 24.091 93.5521 23.9259 94.6493 23.9259ZM93.9857 36.4102C95.0475 36.4102 95.9589 36.1756 96.7198 35.7064C97.4808 35.2199 98.0471 34.5249 98.4187 33.6214V31.38H94.0388C91.6497 31.38 90.4551 32.1966 90.4551 33.8299C90.4551 34.6292 90.7648 35.2634 91.3842 35.7325C92.0036 36.1843 92.8708 36.4102 93.9857 36.4102Z" fill="#213E26"/>
<path d="M113.652 37.7394L119.226 24.2908C119.571 23.4568 119.81 22.727 119.81 22.1276C119.81 20.8765 118.987 19.2606 116.784 19.2606C115.191 19.2606 113.837 20.1728 113.837 21.8148C113.837 23.2222 115.005 24.369 116.492 24.369C118.058 24.369 118.775 23.3004 118.775 22.1797C118.775 21.1372 118.191 20.5898 117.421 20.3292C117.262 20.2771 117.209 20.1989 117.209 20.0686C117.209 19.9383 117.315 19.834 117.448 19.834C117.527 19.834 117.633 19.8601 117.74 19.8861C118.509 20.0946 119.306 20.8765 119.306 22.1536C119.306 22.9877 118.775 24.1605 118.324 25.203L115.085 32.8134H114.687L109.856 19.9122H112.006V19.4952H102.582V19.9122H104.122L110.148 35.8368C110.599 37.0357 111.263 37.7394 112.563 37.7394H113.652Z" fill="#213E26"/>
<path d="M128.799 37.3745C126.516 37.3745 125.985 35.4458 125.985 32.5528H127.737C130.817 32.5528 133.577 31.7188 133.577 28.9822C133.577 26.011 130.551 25.0206 127.498 25.0206C123.278 25.0206 120.597 27.4444 120.597 31.5103C120.597 35.8107 123.357 38 128.003 38C131.162 38 133.126 36.2538 133.63 33.465L133.153 33.3868L133.1 33.6214C132.622 35.915 130.896 37.3745 128.799 37.3745ZM125.959 30.2071C125.959 26.1674 126.516 25.4897 127.498 25.4897C128.215 25.4897 128.746 26.1934 128.746 28.9561C128.746 30.8587 128.295 32.0837 126.622 32.0837H125.959V30.2071Z" fill="#213E26"/>
<path d="M141.199 27.1317V25.0206C139.421 25.3855 137.722 25.5158 135.89 25.5158H134.298V25.9328H136.182V37.0878H134.536V37.5048H143.084V37.0878H141.093V31.9012C141.093 27.7833 142.128 25.4897 144.358 25.4897C145.34 25.4897 145.924 26.011 146.163 26.3237C146.27 26.4801 146.323 26.5844 146.323 26.7147C146.323 26.8711 146.216 26.9492 146.084 26.9492C145.898 26.9492 145.818 26.7407 145.659 26.5583C145.5 26.3759 145.102 26.037 144.491 26.037C143.456 26.037 142.739 26.845 142.739 27.8875C142.739 29.0604 143.668 29.8422 144.81 29.8422C146.243 29.8422 147.066 28.7476 147.066 27.4966C147.066 26.1413 145.924 25.0206 144.332 25.0206C142.898 25.0206 141.863 25.9328 141.332 27.1317H141.199Z" fill="#213E26"/>
<path d="M161.415 19C159.637 19.3649 157.938 19.4952 156.106 19.4952H154.514V19.9122H156.398V26.8711H156.266C155.655 25.6461 154.567 25.0206 152.921 25.0206C149.098 25.0206 147.744 27.7572 147.744 31.5103C147.744 35.0027 149.258 38 152.549 38C154.407 38 155.575 37.4005 156.266 35.7064H156.398V37.5048H163.061V37.0878H161.415V19ZM156.504 31.5103C156.504 33.882 155.867 36.8272 154.487 36.8272C153.292 36.8272 153.107 34.4554 153.107 31.5103C153.107 27.8093 153.452 25.9849 154.487 25.9849C155.469 25.9849 156.504 27.5487 156.504 30.8066V31.5103Z" fill="#213E26"/>
<path d="M172.169 37.3745C169.886 37.3745 169.355 35.4458 169.355 32.5528H171.107C174.186 32.5528 176.947 31.7188 176.947 28.9822C176.947 26.011 173.921 25.0206 170.868 25.0206C166.647 25.0206 163.966 27.4444 163.966 31.5103C163.966 35.8107 166.727 38 171.372 38C174.531 38 176.496 36.2538 177 33.465L176.522 33.3868L176.469 33.6214C175.991 35.915 174.266 37.3745 172.169 37.3745ZM169.328 30.2071C169.328 26.1674 169.886 25.4897 170.868 25.4897C171.585 25.4897 172.116 26.1934 172.116 28.9561C172.116 30.8587 171.664 32.0837 169.992 32.0837H169.328V30.2071Z" fill="#213E26"/>
</g>
</svg>
